<svg xmlns="http://www.w3.org/2000/svg" xmlns:xlink="http://www.w3.org/1999/xlink" viewBox="0 0 85 58.438" fill="#fff" fill-rule="evenodd" width="300" height="300" stroke-linecap="round" stroke-linejoin="round" font-family="Roboto" font-size="14px" text-anchor="middle"><defs><style type="text/css"></style></defs><use xlink:href="#A" x="2.5" y="1.719"></use><symbol id="A" overflow="visible"><path d="M80 37.104V40.9C80 47.842 72.757 55 63.845 55h-47.68C7.254 55 .01 47.842.01 40.9v-3.806z" fill="#9d5125"></path><path d="M30.8 0c8.03-.014 15.322 4.915 18.64 12.6 3.115-2.238 7.14-2.522 10.513-.74s5.558 5.345 5.71 9.307C73.722 21.87 80 30.04 80 36.532v1.408c0 6.98-7.243 14.054-16.188 14.054H16.166C7.243 51.994 0 44.92 0 37.94v-1.396c0-5.38 4.303-12.778 10.353-14.615v-.608c.02-5.677 2.187-11.112 6.02-15.1S25.398-.022 30.8 0z" fill="#f58535"></path><path d="M19.4 24.947h3.167l3.18 15.736 3.406-15.7h3.167L27.6 44.61h-3.803zm14.827 0h5.926c3.587 0 5.165 2.386 5.165 5.727s-1.964 5.8-5.472 5.8h-2.634V44.6h-2.986zm2.986 9.175h2.123c1.6 0 2.986-.907 2.986-3.388 0-2.124-.806-3.412-3.2-3.412h-1.907zm22.092 3.436v.417c0 3.58-1.362 7.027-5.767 7.027-4.722 0-6.187-3.197-6.187-10.212s1.465-10.213 6.2-10.213c5.313 0 5.676 4.128 5.676 6.168v.394h-2.974v-.334c0-1.813-.522-3.913-2.668-3.83s-3.2 1.432-3.2 7.767.965 7.886 3.235 7.886c2.486 0 2.78-2.923 2.78-4.772v-.334z"></path></symbol></svg>